<svg width="118" height="55" viewBox="0 0 118 55" fill="none" xmlns="http://www.w3.org/2000/svg">
<rect x="0.5" y="0.5" width="117" height="54" rx="7.5" stroke="#2563EB"/>
<path d="M12.4609 15.0039H17.2773L28.1582 34.6387V15.0039H31.8672V40H27.0508L16.1699 20.6289V40H12.4609V15.0039ZM36.7891 22.0352C36.7891 20.7344 37.123 19.5566 37.791 18.502C38.4707 17.4355 39.373 16.5859 40.498 15.9531C41.623 15.3203 42.8711 15.0039 44.2422 15.0039H50.0957C51.4668 15.0039 52.7148 15.3203 53.8398 15.9531C54.9766 16.5859 55.8789 17.4355 56.5469 18.502C57.2148 19.5566 57.5488 20.7344 57.5488 22.0352V32.9688C57.5488 34.2578 57.2148 35.4355 56.5469 36.502C55.8789 37.5684 54.9766 38.418 53.8398 39.0508C52.7148 39.6836 51.4668 40 50.0957 40H44.2422C42.8711 40 41.623 39.6836 40.498 39.0508C39.373 38.418 38.4707 37.5684 37.791 36.502C37.123 35.4355 36.7891 34.2578 36.7891 32.9688V22.0352ZM40.498 32.9863C40.498 33.9004 40.8613 34.6855 41.5879 35.3418C42.3262 35.9863 43.2109 36.3086 44.2422 36.3086H50.0957C51.1387 36.3086 52.0234 35.9863 52.75 35.3418C53.4766 34.6855 53.8398 33.9004 53.8398 32.9863V22.0176C53.8398 21.1035 53.4766 20.3242 52.75 19.6797C52.0234 19.0234 51.1387 18.6953 50.0957 18.6953H44.2422C43.2109 18.6953 42.3262 19.0234 41.5879 19.6797C40.8613 20.3242 40.498 21.1035 40.498 22.0176V32.9863ZM62.1367 37.2754L76.3223 18.6953H62.1367V15.0039H81.5957V17.7637L67.4453 36.3438H81.5254V40H62.1367V37.2754ZM86.1836 15.0039H105.572V18.6953H89.8926V36.291H105.572V40H86.1836V15.0039ZM92.002 25.1465H105.572V28.8379H92.002V25.1465Z" fill="#2563EB"/>
</svg>
